# xmcd
#
# Track frame offsets: 
#        150
#        20295
#        49327
#        72020
#        90305
#        112410
#        129572
#        151280
#        167452
#        184700
#        206400
#
# Disc length: 3958 seconds
#
# Revision: 12
# Processed by: cddbd v1.5.2PL0 Copyright (c) Steve Scherf et al.
# Submitted via: ExactAudioCopyFreeDBPlugin 1.0
#
DISCID=8b0f740b
DTITLE=All Saints - All Hits
DYEAR=2001
DGENRE=Pop
TTITLE0=Pure Shores
TTITLE1=Never Ever
TTITLE2=Under The Bridge
TTITLE3=Lady Marmalade (98 Remix)
TTITLE4=I Know Where It's At (Original Mix)
TTITLE5=Twentyfourseven (Radioversion) - Artful Dodger Feat. Melanie B
TTITLE5=latt
TTITLE6=Black Coffee
TTITLE7=Bootie Call (Single Version)
TTITLE8=All Hooked Up (Single Version)
TTITLE9=War Of Nerves (98 Remix)
TTITLE10=Pure Shores (2 Da Beach U Don't Stop Remix)
EXTD=(c)2001 London Records 90 Ltd\nupc 809274215222\n YEAR: 2001
EXTT0=
EXTT1=
EXTT2=
EXTT3=
EXTT4=
EXTT5=
EXTT6=
EXTT7=
EXTT8=
EXTT9=
EXTT10=
PLAYORDER=
